<?xml version="1.0" standalone="no"?>
<!DOCTYPE svg PUBLIC "-//W3C//DTD SVG 20010904//EN"
 "http://www.w3.org/TR/2001/REC-SVG-20010904/DTD/svg10.dtd">
<svg version="1.0" xmlns="http://www.w3.org/2000/svg"
 width="802.000000pt" height="802.000000pt" viewBox="0 0 802.000000 802.000000"
 preserveAspectRatio="xMidYMid meet">
<metadata>
Created by potrace 1.11, written by Peter Selinger 2001-2013
</metadata>
<g transform="translate(0.000000,802.000000) scale(0.100000,-0.100000)"
fill="#000000" stroke="none">
<path d="M2630 7994 c-166 -45 -331 -134 -366 -199 -16 -30 -16 -37 -3 -62 7
-15 22 -34 31 -41 9 -7 23 -19 31 -26 17 -18 81 -50 131 -66 81 -26 164 -147
228 -331 30 -87 32 -104 32 -219 0 -107 -4 -136 -26 -200 -25 -74 -26 -76 -89
-112 -35 -21 -85 -49 -110 -62 -55 -29 -219 -137 -272 -179 -36 -28 -40 -29
-65 -16 -38 20 -222 204 -262 264 -33 48 -34 53 -35 150 0 88 -3 104 -23 133
-40 55 -100 42 -213 -44 -67 -51 -107 -96 -126 -142 -12 -29 -12 -37 1 -56 20
-31 66 -52 155 -70 53 -11 86 -25 116 -48 81 -64 186 -203 221 -294 16 -42 16
-45 -1 -64 -10 -11 -21 -20 -25 -20 -4 0 -13 28 -20 63 -29 137 -84 213 -175
241 -45 15 -63 16 -105 7 -77 -17 -140 -53 -203 -118 -97 -100 -150 -194 -161
-287 -9 -72 13 -152 51 -188 36 -33 105 -68 136 -68 39 0 39 -11 -2 -55 -45
-49 -132 -177 -168 -248 -23 -46 -26 -49 -56 -44 -106 16 -322 107 -474 199
-129 77 -144 94 -182 195 -70 185 -145 236 -245 166 -81 -58 -187 -241 -194
-336 -4 -53 -2 -61 23 -87 15 -16 43 -31 63 -35 51 -10 163 -7 217 5 56 13
111 0 207 -47 38 -18 71 -33 73 -33 13 0 205 -137 243 -174 58 -55 123 -141
150 -197 30 -62 28 -121 -7 -226 -59 -177 -127 -487 -132 -602 -2 -35 -8 -55
-18 -61 -41 -21 -163 -45 -236 -45 -72 0 -86 4 -135 32 -30 18 -91 66 -135
107 -97 92 -142 116 -216 116 -95 0 -167 -63 -209 -182 -68 -193 -38 -447 64
-550 95 -94 211 -71 381 76 143 124 188 151 249 149 47 -1 208 -51 227 -70 4
-4 9 -46 11 -92 l3 -84 125 -39 c181 -57 913 -282 1065 -328 33 -10 80 -24
104 -32 43 -13 44 -13 78 19 18 18 53 38 76 44 48 13 62 12 377 -30 604 -79
972 -105 1350 -98 367 7 565 26 1121 104 297 42 317 41 384 -18 l34 -30 473
147 c260 80 493 152 518 160 25 7 83 25 130 39 47 15 102 31 123 37 25 7 37
16 37 28 0 15 12 19 77 26 90 8 282 -1 332 -15 19 -6 57 -34 85 -62 92 -93
146 -111 190 -64 30 32 47 97 53 207 7 104 -12 172 -51 182 -41 10 -133 -29
-194 -83 -31 -27 -94 -35 -211 -28 -94 6 -189 25 -240 50 -26 12 -26 14 -33
157 -4 80 -12 191 -18 248 l-12 102 54 62 c54 63 186 158 219 158 10 0 62 -16
115 -35 111 -40 176 -45 232 -16 55 28 102 92 102 140 0 33 16 33 82 -3 124
-68 195 -67 230 4 24 48 22 99 -7 217 -47 187 -102 263 -179 249 -36 -7 -99
-67 -141 -136 -25 -40 -29 -43 -39 -26 -26 45 -74 101 -109 130 -31 25 -49 31
-100 34 -56 3 -66 1 -103 -26 -49 -36 -96 -93 -152 -187 -70 -117 -84 -129
-129 -122 -21 4 -72 20 -113 36 -71 28 -75 31 -78 63 -11 147 -57 330 -116
462 -14 32 -26 60 -26 61 0 1 28 15 62 30 l61 28 79 -19 c69 -15 84 -16 116
-4 78 28 82 80 16 209 -54 106 -116 171 -163 171 -41 0 -82 -52 -112 -142 -18
-55 -34 -82 -69 -115 -24 -24 -47 -43 -50 -43 -3 0 -25 30 -49 66 -58 88 -210
245 -309 319 -91 68 -91 68 -45 161 22 45 30 53 70 65 68 21 105 72 111 149 4
57 7 63 65 125 76 84 110 101 218 109 136 10 193 43 191 111 -2 64 -87 173
-206 267 -158 126 -246 74 -246 -146 0 -49 -6 -87 -17 -113 -22 -48 -76 -133
-84 -133 -4 0 -34 26 -67 58 -34 33 -90 73 -125 90 -158 78 -264 11 -282 -177
-12 -118 -25 -213 -30 -222 -4 -5 -32 10 -63 35 -104 79 -287 193 -419 261
-40 20 -73 42 -73 48 0 23 51 121 96 183 36 52 52 65 84 74 238 64 224 182
-38 307 -93 45 -135 41 -159 -15 -15 -36 -14 -63 3 -183 4 -33 1 -63 -11 -100
-19 -57 -87 -180 -111 -200 -11 -9 -38 -2 -123 30 -61 23 -114 41 -118 41 -17
0 -47 67 -59 128 -16 87 -10 329 10 417 24 103 34 122 80 149 52 31 121 100
137 138 9 21 9 35 1 53 -13 27 -77 73 -112 80 -13 2 -37 9 -54 14 -56 18 -200
33 -251 26 -132 -17 -143 -82 -39 -234 53 -79 55 -84 61 -164 9 -139 -36 -313
-112 -432 -19 -30 -42 -58 -52 -64 -13 -6 -47 -5 -108 5 -50 8 -194 17 -321
21 l-232 6 -6 38 c-13 81 12 141 117 275 48 63 77 119 77 151 0 43 -24 97 -57
128 -56 53 -140 78 -258 79 -238 1 -392 -98 -371 -239 8 -52 50 -110 165 -227
87 -89 110 -127 111 -185 0 -40 -2 -43 -27 -43 -15 0 -109 -16 -209 -36 l-182
-36 -69 40 c-102 60 -174 146 -271 322 -97 179 -135 318 -100 372 28 43 58
139 58 183 0 63 -16 91 -60 104 -47 14 -72 13 -140 -5z m87 -1825 c200 -26
415 -112 569 -227 197 -147 358 -369 429 -592 52 -165 69 -317 54 -484 -47
-535 -434 -969 -961 -1076 -125 -26 -327 -28 -460 -5 -467 81 -855 458 -957
930 -118 544 147 1092 647 1340 117 58 240 94 402 119 54 8 203 5 277 -5z
m2883 -4 c275 -42 490 -151 685 -349 156 -157 251 -324 313 -546 24 -87 26
-111 26 -290 1 -153 -3 -211 -16 -267 -113 -461 -437 -793 -893 -914 -115 -30
-376 -38 -500 -14 -380 70 -694 305 -865 645 -144 287 -169 606 -70 913 105
328 349 598 666 736 206 89 437 120 654 86z"/>
<path d="M2468 5650 c-282 -51 -495 -232 -585 -498 -34 -101 -43 -271 -19
-382 19 -93 89 -235 155 -316 88 -109 236 -202 377 -237 283 -72 592 32 760
257 138 183 186 408 134 625 -62 257 -262 463 -515 531 -89 24 -236 33 -307
20z m382 -330 c60 -30 95 -90 94 -159 0 -104 -62 -172 -163 -179 -159 -11
-253 148 -166 280 49 74 154 99 235 58z"/>
<path d="M5290 5645 c-168 -29 -300 -102 -416 -229 -125 -137 -188 -303 -187
-491 1 -220 83 -404 245 -549 215 -192 548 -236 811 -106 173 87 308 242 366
425 54 168 51 320 -10 489 -37 103 -93 188 -177 268 -116 111 -248 175 -408
198 -92 12 -128 12 -224 -5z m18 -319 c31 -16 74 -61 91 -93 6 -12 11 -45 11
-73 0 -103 -76 -180 -177 -180 -60 0 -96 15 -134 57 -40 42 -49 66 -49 125 0
102 78 178 183 178 26 0 60 -6 75 -14z"/>
<path d="M1016 3577 c3 -18 9 -50 14 -72 5 -22 14 -65 20 -95 6 -30 26 -110
45 -176 19 -67 35 -126 35 -131 0 -9 -44 -31 -135 -69 -22 -9 -53 -22 -70 -29
-95 -43 -156 -44 -245 -5 -113 49 -190 40 -206 -26 -20 -80 46 -294 114 -366
52 -56 121 -26 185 82 21 34 37 65 37 69 0 13 86 70 145 97 57 27 193 64 232
64 16 0 25 -11 39 -47 52 -141 228 -446 343 -596 l45 -57 -35 -36 c-19 -20
-56 -54 -82 -75 -47 -38 -52 -39 -125 -39 -99 -1 -157 -24 -167 -69 -19 -86
176 -298 266 -289 56 5 70 37 95 223 4 31 97 159 123 170 8 3 30 -14 55 -42
22 -26 59 -65 80 -86 l40 -39 220 70 221 70 3 565 2 565 -77 25 c-43 14 -116
36 -163 50 -91 28 -570 174 -760 233 -63 20 -144 45 -180 56 -36 11 -77 23
-92 28 -26 8 -27 8 -22 -23z"/>
<path d="M6830 3558 c-139 -43 -260 -80 -712 -219 l-408 -124 3 -575 2 -574
198 -62 198 -62 54 57 c55 58 66 70 125 140 19 22 40 41 47 41 19 0 83 -60
110 -103 17 -27 29 -68 38 -135 19 -124 38 -174 81 -212 110 -96 334 36 443
260 44 92 35 177 -24 229 -49 43 -95 52 -257 49 -116 -2 -149 1 -173 14 -38
20 -85 67 -85 84 0 7 26 53 58 101 32 48 66 105 77 125 18 35 21 37 60 32 27
-3 68 4 130 23 77 24 107 28 205 27 131 0 284 -33 399 -85 79 -36 107 -60 122
-108 32 -98 112 -180 162 -166 69 21 180 245 194 390 4 52 2 64 -18 89 -21 27
-25 28 -83 23 -39 -3 -84 -16 -126 -36 -78 -37 -133 -40 -242 -11 -180 47
-307 136 -394 278 -49 79 -110 162 -129 174 -8 5 -5 33 11 95 12 48 31 130 42
181 23 109 31 104 -108 60z"/>
<path d="M1774 1905 c-34 -7 -72 -19 -85 -27 -152 -85 -143 -262 21 -424 37
-36 73 -70 81 -74 15 -10 -15 -71 -82 -171 -57 -85 -96 -115 -160 -122 -65 -8
-147 -34 -171 -54 -29 -26 -38 -67 -22 -99 23 -44 101 -120 174 -168 128 -86
202 -112 249 -87 27 15 45 82 37 143 -19 163 -19 167 -1 215 21 55 90 170 117
194 10 9 18 21 18 27 0 16 27 22 62 11 75 -21 166 -4 214 42 21 19 42 62 60
123 7 22 21 33 65 51 l56 22 53 -33 c66 -41 273 -143 357 -175 l62 -24 30 -90
c28 -83 30 -99 27 -205 -6 -175 -67 -441 -120 -522 -9 -13 -46 -40 -83 -59
-37 -19 -91 -57 -120 -85 -46 -43 -53 -55 -53 -88 0 -30 7 -44 32 -68 78 -73
291 -148 424 -149 148 -2 169 76 74 274 -38 78 -42 95 -41 156 0 38 12 111 25
162 54 208 140 341 283 440 26 18 57 41 68 50 17 14 29 16 75 8 30 -5 98 -14
150 -19 133 -15 132 -14 170 -67 19 -26 43 -57 53 -68 64 -69 113 -276 106
-444 -4 -78 -5 -79 -50 -128 -120 -128 -98 -189 71 -200 110 -8 203 4 242 31
59 39 51 79 -32 167 -78 83 -96 136 -93 274 2 116 22 203 61 262 108 166 114
173 144 173 15 0 71 7 123 15 l95 15 72 -75 c40 -42 87 -102 105 -132 60 -106
140 -365 150 -485 6 -65 5 -69 -35 -135 -55 -90 -72 -134 -72 -182 0 -73 78
-111 198 -96 213 27 331 83 332 158 0 51 -52 111 -171 198 -45 34 -103 156
-111 238 -3 23 -1 24 57 22 108 -4 222 55 260 135 45 95 5 190 -118 287 -44
34 -92 72 -106 84 l-26 21 19 49 c10 26 20 57 23 68 3 14 37 34 116 69 62 27
147 70 191 94 76 44 79 45 105 29 14 -9 63 -38 109 -64 46 -26 106 -70 134
-98 92 -90 217 -272 238 -344 5 -17 4 -61 -2 -105 -18 -127 19 -196 97 -182
102 20 262 135 271 197 7 55 -34 89 -170 139 -34 13 -67 35 -87 58 -59 67
-126 180 -160 269 -32 85 -33 93 -31 218 1 72 -3 149 -10 173 -9 37 -9 44 6
55 15 11 1 18 -101 50 -66 20 -123 37 -127 37 -4 0 -17 -10 -29 -21 -12 -12
-36 -27 -53 -35 -50 -21 -619 -100 -1049 -146 -281 -30 -833 -32 -1115 -5
-250 24 -537 61 -760 97 -280 46 -287 48 -330 86 -20 19 -42 34 -47 34 -5 0
-71 -20 -147 -45 -76 -25 -146 -45 -155 -45 -9 0 -48 32 -86 70 -38 39 -74 70
-80 69 -5 0 -38 -7 -71 -14z"/>
</g>
</svg>
